<?xml version="1.0" encoding="UTF-8"?>
<svg width="203px" height="130px" viewBox="0 0 203 130" version="1.1" xmlns="http://www.w3.org/2000/svg" xmlns:xlink="http://www.w3.org/1999/xlink">
    <!-- Generator: sketchtool 42 (36781) - http://www.bohemiancoding.com/sketch -->
    <title>43842BDE-88F8-48A4-9CF3-7E78231E00D9</title>
    <desc>Created with sketchtool.</desc>
    <defs>
        <path d="M20,0 L96.0054168,0 C98.2115642,0 100,1.78946078 100,3.99261475 L100,116.007385 C100,118.212445 98.2004701,120 96.0026765,120 L3.99732351,120 C1.78966269,120 0,118.200516 0,116.002779 L0,20.0025676 L20,0 Z" id="path-1"></path>
        <filter x="-50%" y="-50%" width="200%" height="200%" filterUnits="objectBoundingBox" id="filter-2">
            <feOffset dx="0" dy="2" in="SourceAlpha" result="shadowOffsetOuter1"></feOffset>
            <feGaussianBlur stdDeviation="2" in="shadowOffsetOuter1" result="shadowBlurOuter1"></feGaussianBlur>
            <feColorMatrix values="0 0 0 0 0   0 0 0 0 0   0 0 0 0 0  0 0 0 0.5 0" type="matrix" in="shadowBlurOuter1"></feColorMatrix>
        </filter>
        <path d="M16.00077,20 C18.2094838,20 20,18.2075324 20,16.00077 L20,0 L0,20 L16.00077,20 Z" id="path-3"></path>
        <filter x="-50%" y="-50%" width="200%" height="200%" filterUnits="objectBoundingBox" id="filter-4">
            <feOffset dx="0" dy="0" in="SourceAlpha" result="shadowOffsetOuter1"></feOffset>
            <feGaussianBlur stdDeviation="2" in="shadowOffsetOuter1" result="shadowBlurOuter1"></feGaussianBlur>
            <feColorMatrix values="0 0 0 0 0   0 0 0 0 0   0 0 0 0 0  0 0 0 0.5 0" type="matrix" in="shadowBlurOuter1"></feColorMatrix>
        </filter>
    </defs>
    <g id="Start-" stroke="none" stroke-width="1" fill="none" fill-rule="evenodd">
        <g id="Email_Desktop" transform="translate(-197.000000, -151.000000)">
            <g id="Group" transform="translate(201.000000, 155.000000)">
                <g id="Clouds" transform="translate(79.000000, 15.000000)" fill="#F2F2F2">
                    <path d="M65.9726916,4.74199633 C65.8815607,3.07773317 64.503178,1.75629494 62.8161569,1.75629494 C62.185569,1.75629494 61.5981033,1.94092271 61.1048674,2.25907055 C60.7165401,0.952718032 59.5066099,0 58.0741606,0 C56.6050142,0 55.3699343,1.0021574 55.0152365,2.36015648 C54.4935537,1.98035799 53.8512106,1.75629494 53.1565347,1.75629494 C51.4695136,1.75629494 50.0911309,3.07773317 50,4.74199633 L65.9726916,4.74199633 Z" id="Combined-Shape"></path>
                    <path d="M42.9726916,24.7577963 C42.7275143,20.2802875 39.0191341,16.7251097 34.4803976,16.7251097 C32.7838734,16.7251097 31.2033644,17.2218295 29.8763699,18.0777697 C28.8316197,14.5631784 25.5764417,12 21.7226013,12 C17.7700319,12 14.4471913,14.6961893 13.4929176,18.3497298 C12.08939,17.3279256 10.3612396,16.7251097 8.49229402,16.7251097 C3.95355753,16.7251097 0.2451773,20.2802875 -1.70523318e-15,24.7577963 L42.9726916,24.7577963 Z" id="Combined-Shape-Copy"></path>
                    <path d="M119.972692,13.7577963 C119.727514,9.28028749 116.019134,5.72510974 111.480398,5.72510974 C109.783873,5.72510974 108.203364,6.22182954 106.87637,7.07776975 C105.83162,3.5631784 102.576442,1 98.7226013,1 C94.7700319,1 91.4471913,3.69618935 90.4929176,7.34972984 C89.08939,6.32792563 87.3612396,5.72510974 85.492294,5.72510974 C80.9535575,5.72510974 77.2451773,9.28028749 77,13.7577963 L119.972692,13.7577963 Z" id="Combined-Shape-Copy-2"></path>
                </g>
                <g id="motorbiking_gray" transform="translate(76.000000, 45.000000)" fill-rule="nonzero">
                    <g id="Layer_1">
                        <rect id="Rectangle-path" fill="#CAC9CD" transform="translate(65.479423, 7.394402) rotate(-26.565051) translate(-65.479423, -7.394402) " x="63.6299677" y="1.19734542" width="3.69891099" height="12.3941136"></rect>
                        <path d="M93.1652344,66.5366391 C90.615625,66.5366391 88.5466797,64.4639118 88.5466797,61.9096419 C88.5466797,59.3553719 90.615625,57.2826446 93.1652344,57.2826446 C95.7148438,57.2826446 97.7837891,59.3553719 97.7837891,61.9096419 C97.7837891,64.4639118 95.7148438,66.5366391 93.1652344,66.5366391 Z" id="Shape" fill="#B9B7BD"></path>
                        <path d="M93.1652344,48.0705234 C85.5164063,48.0705234 79.3304688,54.2677686 79.3304688,61.9305785 C79.3304688,69.5933884 85.5164063,75.7906336 93.1652344,75.7906336 C100.814062,75.7906336 107,69.5933884 107,61.9305785 C107,54.2677686 100.814062,48.0705234 93.1652344,48.0705234 Z M93.1652344,70.2424242 C88.5884766,70.2424242 84.8685547,66.5157025 84.8685547,61.9305785 C84.8685547,57.3454545 88.5884766,53.6187328 93.1652344,53.6187328 C97.7419922,53.6187328 101.461914,57.3454545 101.461914,61.9305785 C101.461914,66.5157025 97.7419922,70.2424242 93.1652344,70.2424242 Z" id="Shape" fill="#DCDCDC"></path>
                        <path d="M93.1025391,63.6473829 C92.4755859,63.6473829 91.8695312,63.3333333 91.5142578,62.7471074 L82.4443359,47.6099174 C81.921875,46.7305785 82.1935547,45.6 83.0712891,45.076584 C83.9490234,44.553168 85.0775391,44.846281 85.6,45.7046832 L94.6699219,60.8418733 C95.1923828,61.7212121 94.9207031,62.8517906 94.0429687,63.3752066 C93.7503906,63.5636364 93.4369141,63.6473829 93.1025391,63.6473829 Z" id="Shape" fill="#DCDBDE"></path>
                        <path d="M80.7933594,52.5719008 L98.0972656,52.5719008 C98.7869141,52.5719008 99.4347656,52.1741047 99.7482422,51.5460055 L100.70957,49.5988981 C101.211133,48.5730028 100.960352,47.3586777 100.103516,46.6049587 C98.0763672,44.8253444 93.5623047,41.9151515 84.8685547,40.6589532 L80.7933594,52.5719008 Z" id="Shape" fill="#B7B7B7"></path>
                        <path d="M17.5337891,48.0705234 C9.88496094,48.0705234 3.69902344,54.2677686 3.69902344,61.9305785 C3.69902344,69.5933884 9.88496094,75.7906336 17.5337891,75.7906336 C25.1826172,75.7906336 31.3685547,69.5933884 31.3685547,61.9305785 C31.3685547,54.2677686 25.1617187,48.0705234 17.5337891,48.0705234 Z M17.5337891,70.2424242 C12.9570312,70.2424242 9.23710937,66.5157025 9.23710937,61.9305785 C9.23710937,57.3454545 12.9361328,53.5977961 17.5337891,53.5977961 C22.1314453,53.5977961 25.8304687,57.3245179 25.8304687,61.9096419 C25.8304687,66.5157025 22.1105469,70.2424242 17.5337891,70.2424242 Z" id="Shape" fill="#DCDCDC"></path>
                        <path d="M35.9662109,66.5366391 L17.5337891,66.5366391 C14.9841797,66.5366391 12.9152344,64.4639118 12.9152344,61.9096419 L12.9152344,61.9096419 C12.9152344,59.3553719 14.9841797,57.2826446 17.5337891,57.2826446 L35.9871094,57.2826446 C38.5367188,57.2826446 40.6056641,59.3553719 40.6056641,61.9096419 L40.6056641,61.9096419 C40.5847656,64.4639118 38.5158203,66.5366391 35.9662109,66.5366391 Z" id="Shape" fill="#DCDBDE"></path>
                        <path d="M68.2542969,60.9884298 L71.4517578,43.4016529 C71.7861328,41.6011019 71.7234375,39.737741 71.2845703,37.9581267 L66.4152344,16.6446281 L71.9533203,16.6446281 L81.1695313,40.6798898 L75.6314453,61.0093664 L68.2542969,60.9884298 L68.2542969,60.9884298 Z" id="Shape" fill="#B7B7B7"></path>
                        <path d="M79.4558594,60.4022039 L87.271875,43.4225895 C88.0660156,41.7057851 87.9197266,39.7168044 86.9166016,38.1256198 L76.3837891,21.5438017 C75.9449219,20.8528926 75.0671875,20.6225895 74.3566406,20.9785124 L74.3566406,20.9785124 C72.9564453,21.6694215 72.2667969,23.2815427 72.7265625,24.7889807 L75.7568359,34.9432507 C76.8853516,38.7118457 77.0734375,42.7107438 76.3001953,46.5630854 L74.3775391,56.1939394 C74.0431641,57.9316804 72.5175781,59.1669421 70.7621094,59.1669421 L51.6400391,59.1669421 L55.3390625,38.8374656 L51.6400391,33.2892562 L27.6486328,31.446832 L13.5839844,32.9961433 C12.1628906,33.1636364 11.0761719,34.3570248 11.0761719,35.8016529 L11.0761719,35.8016529 C11.0761719,36.5553719 11.36875,37.2672176 11.8912109,37.7906336 L14.7542969,40.6589532 C14.7542969,40.6589532 0,44.3647383 0,53.5977961 L0,55.4402204 C0,56.4661157 0.8359375,57.2826446 1.8390625,57.2826446 L29.8220703,57.2826446 C30.8042969,57.2826446 31.7447266,57.6804408 32.434375,58.3713499 L37.6589844,63.6055096 C38.3486328,64.2964187 39.2890625,64.6942149 40.2712891,64.6942149 L72.7683594,64.6942149 C75.6314453,64.6942149 78.2646484,63.0192837 79.4558594,60.4022039 Z" id="Shape" fill="#F2F2F2"></path>
                        <path d="M55.3390625,38.8165289 L51.6400391,33.2683196 L27.6486328,31.4258953 L13.5839844,32.9961433 C12.1628906,33.1636364 11.0761719,34.3570248 11.0761719,35.8016529 C11.0761719,36.5553719 11.36875,37.2672176 11.9121094,37.7906336 L14.7751953,40.6589532 L55.0255859,40.6589532 L55.3390625,38.8165289 Z" id="Shape" fill="#B7B7B7"></path>
                        <path d="M77.4914063,18.4870523 L68.2751953,18.4870523 C66.2271484,18.4870523 64.5761719,16.8330579 64.5761719,14.7812672 L64.5761719,14.7812672 C64.5761719,12.7294766 66.2271484,11.0754821 68.2751953,11.0754821 L77.4914063,11.0754821 L77.4914063,18.4870523 Z" id="Shape" fill="#DCDCDC"></path>
                        <path d="M68.2542969,16.6446281 C67.7736328,16.6446281 67.3138672,16.4561983 66.9585938,16.1002755 L65.6628906,14.8022039 L60.8980469,14.8022039 C59.8740234,14.8022039 59.0589844,13.9647383 59.0589844,12.9597796 C59.0589844,11.9548209 59.8740234,11.1173554 60.8980469,11.1173554 L65.6628906,11.1173554 C66.6242188,11.1173554 67.5855469,11.5151515 68.2751953,12.2060606 L69.5708984,13.5041322 C70.2814453,14.215978 70.2814453,15.3884298 69.5708984,16.1212121 C69.1947266,16.4561983 68.7349609,16.6446281 68.2542969,16.6446281 Z" id="Shape" fill="#CCCCCC"></path>
                        <path d="M77.4914063,18.4870523 L75.6523438,18.4870523 L75.6523438,11.0964187 L77.4914063,11.0964187 C78.5154297,11.0964187 79.3304688,11.9338843 79.3304688,12.938843 L79.3304688,16.6446281 C79.3304688,17.6705234 78.4945313,18.4870523 77.4914063,18.4870523 Z" id="Shape" fill="#F2F2F2"></path>
                        <ellipse id="Oval" fill="#EDEDEE" cx="17.5337891" cy="61.9305785" rx="4.61855469" ry="4.62699725"></ellipse>
                        <path d="M23.9914063,31.9911846 L23.9914063,31.9911846 C23.9914063,32.7867769 24.3884766,33.5404959 25.0572266,34.0011019 L31.3476563,38.1884298 C33.771875,39.800551 36.6140625,40.6798898 39.5398438,40.6798898 L54.9628906,40.6798898 C56.1332031,40.6798898 56.9900391,39.6121212 56.7810547,38.4606061 L56.5720703,37.3719008 C55.8824219,33.9173554 52.8521484,31.4258953 49.3412109,31.4258953 L39.4353516,31.4258953 C37.784375,31.4258953 36.1333984,31.2165289 34.5033203,30.8187328 L31.9746094,30.1906336 C30.3654297,29.7928375 28.7144531,29.5834711 27.0425781,29.5834711 L26.415625,29.5834711 C25.0572266,29.5834711 23.9914063,30.6512397 23.9914063,31.9911846 Z" id="Shape" fill="#CCCCCC"></path>
                        <path d="M33.9390625,50.2688705 L39.4771484,57.6595041 C40.1667969,58.5807163 41.2744141,59.1460055 42.4238281,59.1460055 L51.6400391,59.1460055 L54.3150391,44.3647383 L36.8648438,44.3647383 C33.8554688,44.3647383 32.1208984,47.8402204 33.9390625,50.2688705 Z" id="Shape" fill="#B7B7B7"></path>
                        <path d="M62.7162109,7.39063361 L60.8771484,7.39063361 C59.853125,7.39063361 59.0380859,6.55316804 59.0380859,5.54820937 L59.0380859,1.86336088 C59.0380859,0.837465565 59.8740234,0.0209366391 60.8771484,0.0209366391 L62.7162109,0.0209366391 C64.7642578,0.0209366391 66.4152344,1.67493113 66.4152344,3.72672176 L66.4152344,3.72672176 C66.4152344,5.73663912 64.7642578,7.39063361 62.7162109,7.39063361 Z" id="Shape" fill="#DCDCDC"></path>
                    </g>
                </g>
                <g id="Blue-page">
                    <g id="Rectangle-2">
                        <use fill="black" fill-opacity="1" filter="url(#filter-2)" xlink:href="#path-1"></use>
                        <use fill="#52BAD5" fill-rule="evenodd" xlink:href="#path-1"></use>
                    </g>
                    <g id="Triangle">
                        <use fill="black" fill-opacity="1" filter="url(#filter-4)" xlink:href="#path-3"></use>
                        <use fill="#2C9AB7" fill-rule="evenodd" xlink:href="#path-3"></use>
                    </g>
                </g>
            </g>
        </g>
    </g>
</svg>