<?xml version="1.0" encoding="UTF-8"?>
<svg width="146px" height="24px" viewBox="0 0 146 24" version="1.1" xmlns="http://www.w3.org/2000/svg" xmlns:xlink="http://www.w3.org/1999/xlink">
    <!-- Generator: sketchtool 42 (36781) - http://www.bohemiancoding.com/sketch -->
    <title>16B85803-B829-43C9-8A2E-8D123EFC88D5</title>
    <desc>Created with sketchtool.</desc>
    <defs></defs>
    <g id="Start-" stroke="none" stroke-width="1" fill="none" fill-rule="evenodd">
        <g id="Email_Desktop" transform="translate(-227.000000, -81.000000)" fill-rule="nonzero" fill="#1BB575">
            <g id="Tmint" transform="translate(227.000000, 81.000000)">
                <path d="M11.7171808,20.0622222 C11.1367632,19.52 10.2298607,19.3211852 9.52247668,19.7368889 C8.94205905,20.0802963 8.27095117,20.261037 7.54542914,20.261037 C5.44141524,20.261037 3.71830042,18.544 3.71830042,16.4293333 L3.71830042,10.8444444 L9.19599176,10.8444444 C10.1935846,10.8444444 10.9916588,10.0311111 10.9916588,9.03703704 C10.9916588,8.04296296 10.1754465,7.22962963 9.19599176,7.22962963 L3.73643847,7.22962963 L3.73643847,1.84355556 C3.73643847,0.849481481 2.92022618,0.0542222222 1.92263339,0.0542222222 C0.925040591,0.0542222222 0.108828305,0.867555556 0.108828305,1.84355556 L0.108828305,16.4293333 C0.290208813,20.5502222 3.44622965,23.8397037 7.54542914,23.8397037 C8.94205905,23.8397037 10.2479987,23.4782222 11.3544198,22.8094815 C12.3701507,22.2311111 12.5515312,20.9659259 11.7171808,20.0622222 L11.7171808,20.0622222 Z" id="Shape"></path>
                <path d="M26.2276215,7.04888889 L26.2276215,7.04888889 C25.2300287,7.04888889 24.4138164,7.84414815 24.4138164,8.83822222 L24.4138164,16.5558519 C24.4138164,18.6705185 22.7451157,20.261037 20.695516,20.261037 C18.6459162,20.261037 16.9772156,18.6705185 16.9772156,16.5558519 L16.9772156,8.83822222 C16.9772156,7.84414815 16.1972794,7.04888889 15.1996866,7.04888889 L15.1815485,7.04888889 C14.1839557,7.04888889 13.3496054,7.84414815 13.3496054,8.83822222 L13.3496054,16.5558519 C13.3496054,20.6767407 16.6507306,23.8397037 20.695516,23.8397037 C24.7403013,23.8397037 28.0414266,20.6767407 28.0414266,16.5558519 L28.0414266,8.83822222 C28.0414266,7.84414815 27.2070762,7.04888889 26.2276215,7.04888889 Z" id="Shape"></path>
                <path d="M40.0488162,7.21155556 C39.3051561,6.95851852 38.5252199,6.832 37.6908696,6.832 C33.6460843,6.832 30.3812351,9.99496296 30.3812351,14.1158519 L30.3812351,21.7792593 C30.3812351,22.7914074 31.2155854,23.6408889 32.2313163,23.6228148 C33.210771,23.6047407 34.0088453,22.8094815 34.0088453,21.8334815 L34.0088453,14.1158519 C34.0088453,12.0011852 35.6412698,10.4106667 37.6908696,10.4106667 C38.1261828,10.4106667 38.543358,10.482963 38.924257,10.6094815 C39.6497791,10.8625185 40.4478533,10.5914074 40.9013046,9.99496296 C41.6812408,9.03703704 41.2277895,7.60918519 40.0488162,7.21155556 Z" id="Shape"></path>
                <path d="M52.2194483,19.7188148 C51.6390307,20.0622222 50.9316467,20.261037 50.2242627,20.261037 C48.1202488,20.261037 46.5422384,18.544 46.3608579,16.4293333 L46.3608579,10.8444444 L51.8929634,10.8444444 C52.8905562,10.8444444 53.6886304,10.0311111 53.6886304,9.03703704 C53.6886304,8.04296296 52.8724181,7.22962963 51.8929634,7.22962963 L46.3608579,7.22962963 L46.3608579,1.84355556 C46.3608579,0.849481481 45.5627836,0.180740741 44.5651908,0.180740741 L44.5651908,0.180740741 C43.567598,0.180740741 42.7332477,0.867555556 42.7332477,1.84355556 L42.7332477,16.4293333 C42.9146282,20.5502222 46.1069252,23.8397037 50.2061246,23.8397037 C51.6027546,23.8397037 52.9086942,23.4601481 54.0332534,22.7914074 C55.0308462,22.194963 55.2303647,20.8213333 54.3960144,20.008 C53.8155968,19.4477037 52.9268323,19.3031111 52.2194483,19.7188148 Z" id="Shape"></path>
                <path d="M62.4130328,20.261037 C60.9075746,19.754963 59.7648774,18.3271111 59.7648774,16.6281481 L59.7648774,2.09659259 C59.7648774,1.08444444 58.9305271,0.234962963 57.9147962,0.253037037 C56.9353415,0.271111111 56.1372673,1.06637037 56.1372673,2.04237037 L56.1372673,16.6281481 C56.1372673,19.9176296 58.2956953,22.701037 61.2340595,23.6951111 C62.3948948,24.0927407 63.5738681,23.2432593 63.5738681,22.0142222 L63.5738681,21.96 C63.5920061,21.2008889 63.1385549,20.5140741 62.4130328,20.261037 Z" id="Shape"></path>
                <path d="M72.2801325,6.9042963 C67.7818959,7.01274074 64.1180096,10.6817778 64.0091813,15.1641481 C63.900353,19.9176296 67.7456198,23.8035556 72.4977891,23.8035556 C73.912557,23.8035556 75.2547728,23.4601481 76.4337461,22.8456296 C77.5038911,22.2853333 77.7215477,20.8394074 76.8690593,19.9899259 C76.3067798,19.4296296 75.4724294,19.3031111 74.7650454,19.6645926 C74.0939376,20.0260741 73.3140014,20.2248889 72.479651,20.2248889 C70.4300513,20.2248889 68.6887984,18.9958519 67.9632764,17.1884444 L79.1544537,17.1884444 C80.1520465,17.1884444 80.9863969,16.3931852 80.9863969,15.3991111 L80.9863969,15.381037 C81.0045349,10.6094815 77.0685779,6.77777778 72.2801325,6.9042963 Z M67.9632764,13.5555556 C68.6706604,11.7481481 70.4481893,10.4648889 72.5159271,10.4648889 C74.5836649,10.4648889 76.3430559,11.7481481 77.0504398,13.5555556 L67.9632764,13.5555556 Z" id="Shape"></path>
                <path d="M99.4146565,7.10311111 C97.5101612,7.10311111 95.8051844,7.89837037 94.589935,9.18162963 C93.3746856,7.89837037 91.6878468,7.10311111 89.7833515,7.10311111 C86.1194652,7.10311111 83.162963,10.013037 83.162963,13.7182222 L83.162963,22.0503704 C83.162963,23.0444444 83.9791752,23.8397037 84.976768,23.8397037 C85.9743608,23.8397037 86.7905731,23.0263704 86.7905731,22.0503704 L86.7905731,13.7001481 C86.7905731,12.0011852 88.1146508,10.6817778 89.7833515,10.6817778 C91.4520522,10.6817778 92.7761299,12.0011852 92.7761299,13.7001481 L92.7761299,22.0503704 C92.7761299,23.0444444 93.5923422,23.8397037 94.589935,23.8397037 C95.5875278,23.8397037 96.4037401,23.0263704 96.4037401,22.0503704 L96.4037401,13.7001481 C96.4037401,12.0011852 97.7278178,10.6817778 99.3965184,10.6817778 C101.065219,10.6817778 102.389297,12.0011852 102.389297,13.7001481 L102.389297,22.0503704 C102.389297,23.0444444 103.205509,23.8397037 104.203102,23.8397037 C105.200695,23.8397037 106.016907,23.0263704 106.016907,22.0503704 L106.016907,13.7001481 C106.035045,10.013037 103.078543,7.10311111 99.4146565,7.10311111 Z" id="Shape"></path>
                <path d="M110.932319,8.53096296 C109.934726,8.53096296 109.118514,9.3442963 109.118514,10.3202963 L109.118514,22.0503704 C109.118514,23.0444444 109.934726,23.8397037 110.932319,23.8397037 C111.929912,23.8397037 112.746124,23.0263704 112.746124,22.0503704 L112.746124,10.3202963 C112.746124,9.32622222 111.929912,8.53096296 110.932319,8.53096296 Z" id="Shape"></path>
                <ellipse id="Oval" cx="110.950457" cy="4.10281481" rx="1.85008118" ry="1.84355556"></ellipse>
                <path d="M123.175503,6.99466667 C119.130718,6.99466667 115.829592,10.1576296 115.829592,14.2785185 L115.829592,21.9961481 C115.829592,22.9902222 116.645805,23.7854815 117.643398,23.7854815 C118.64099,23.7854815 119.457203,22.9721481 119.457203,21.9961481 L119.457203,14.2785185 C119.457203,12.1638519 121.125903,10.5733333 123.175503,10.5733333 C125.225103,10.5733333 126.893803,12.1638519 126.893803,14.2785185 L126.893803,21.9961481 C126.893803,22.9902222 127.710016,23.7854815 128.707609,23.7854815 C129.705201,23.7854815 130.521414,22.9721481 130.521414,21.9961481 L130.521414,14.2785185 C130.521414,10.1757037 127.220288,6.99466667 123.175503,6.99466667 Z" id="Shape"></path>
                <path d="M144.723507,19.9718519 L144.723507,19.9718519 C144.14309,19.3934815 143.236187,19.2488889 142.528803,19.6645926 C141.948386,20.008 141.25914,20.2068148 140.533618,20.2068148 C138.429604,20.2068148 136.869731,18.4897778 136.688351,16.3751111 L136.688351,10.8444444 L142.220456,10.8444444 C143.218049,10.8444444 144.016123,10.0311111 144.016123,9.03703704 C144.016123,8.04296296 143.199911,7.22962963 142.220456,7.22962963 L136.688351,7.22962963 L136.688351,1.80740741 C136.688351,0.813333333 135.872139,0.0180740741 134.874546,0.0180740741 C133.876953,0.0180740741 133.060741,0.831407407 133.060741,1.80740741 L133.060741,16.3931852 C133.242121,20.5140741 136.434418,23.8035556 140.533618,23.8035556 C141.930248,23.8035556 143.236187,23.424 144.360746,22.7552593 C145.358339,22.1768889 145.53972,20.8032593 144.723507,19.9718519 Z" id="Shape"></path>
            </g>
        </g>
    </g>
</svg>